<svg xmlns="http://www.w3.org/2000/svg" version="1.1" width="321" height="563.4" viewBox="0 0 321 563.40002">
  <path fill="#e8e6e1" d="m 74,558.5 c 1.4,-2.4 5.9,-9.9 9.9,-16.7 L 91.2,529.4 l 0,-18.1 0,-18.1 -1.5,0 c -1.3,0 -1.5,-0.3 -1.5,-2.1 0,-1.8 0.2,-2.1 1.5,-2.1 1,0 1.8,-0.6 2.6,-1.8 3.3,-5.6 17.7,-11 38.9,-14.6 15.1,-2.5 37.2,-4.6 49.9,-4.6 5.9,0 6.2,-0.1 6.5,-1.4 0.2,-0.7 1.4,-6.2 2.7,-12.1 l 2.4,-10.8 -46.3,-91.2 C 128,314.7 106.3,279.9 93,240.1 88.1,225.6 85.4,218.4 84.4,217.2 82.5,214.9 81,210.2 81,206.4 c 0,-5.8 3.9,-13.7 8.8,-17.9 l 2.7,-2.3 -8.3,-26.7 -8.3,-26.7 -10.8,-0.4 C 53.7,132.1 49.2,131.3 41.5,128.2 22.6,120.5 8,103.8 2.5,83.5 1.1,78.2 1,76.7 0.9,66.6 0.9,57 1.1,54.9 2.3,50.6 3,47.9 3.6,45.1 3.6,44.3 3.6,41.3 5.5,36.6 7.8,33.8 9.1,32.2 11.6,29 13.4,26.7 20.1,17.9 28.8,10.9 38.6,6.3 48,1.8 60.5,-0.5 70.8,0.2 76.8,0.6 86.3,3.3 92.7,6.3 102.9,11.1 113.3,20.1 118.8,28.7 c 1.8,2.8 3.5,4.7 5.1,5.6 3.5,2 7.6,6.4 9.2,9.8 1.8,3.7 2.2,9.1 1.2,13.8 -0.4,2 -0.7,4.9 -0.6,6.6 0.1,2.4 -0.2,3.7 -1.7,6.5 -1,1.9 -2.1,5.1 -2.5,7.2 -1.6,8.8 -6.4,21 -10.3,26.2 -7.2,9.4 -17.6,18.3 -26.1,22.2 -1.7,0.8 -3.1,1.7 -3.1,2 0,1.3 6.7,21.8 7.3,22.1 0.3,0.2 3,4.5 6,9.6 3,5.1 5.2,8.5 5,7.6 -1,-4.3 2.6,-9.9 8.4,-12.9 3.6,-1.8 9.4,-2.5 12.5,-1.4 1.9,0.6 2.5,0.5 5.3,-0.9 3.8,-1.9 10.6,-2.6 14.8,-1.5 2.8,0.8 5.8,3 7.4,5.7 1.1,1.9 9,7.2 9.6,6.5 0.2,-0.2 3.8,-9.3 8,-20.2 4.2,-10.9 7.8,-20 7.9,-20.2 0.1,-0.2 2.4,0.7 5.1,2 2.7,1.3 4.9,2.3 5,2.2 0.1,-0.1 7.2,-12.8 15.8,-28.1 8.6,-15.4,16.1,-28.4 16.6,-29.1 0.9,-1.1 0.9,-1.1 0.6,0.9 -0.2,1.2 -2.2,17.1 -4.5,35.4 -2.3,18.3 -4.3,33.9 -4.5,34.6 -0.3,1.3 -0.5,1.2 -5.6,-1.9 l -5.4,-3.2 -0.3,1.6 c -0.2,0.9 -1.7,11 -3.4,22.6 -1.7,11.5 -3.2,21.1 -3.3,21.3 -0.2,0.2 -3.4,-1.2 -7.2,-3.1 -3.8,-1.9 -6.9,-3.2 -6.9,-3 0,1.5 -6.7,47.2 -6.9,47.4 -0.3,0.3 -2.3,-0.7 -14.4,-7.6 l -8.4,-4.8 -7.4,22 c -4,12.1 -7.5,22.4 -7.7,23 -0.2,0.7 0.4,1.4 2.2,2.3 5.2,2.6 11.9,10.9 15.9,19.4 3.8,8.2 5.7,18 4.5,23.1 l -0.6,2.7 14.5,28.7 c 10.8,21.3 14.7,28.6 15.4,28.3 0.8,-0.3 57.7,20.1 57.6,20.7 0,0.2 -8.9,10 -19.8,21.9 L 209.4,423.9 l 0,22 0,22 8.9,0.4 c 40.6,1.9 72.4,9 80.3,18 1.8,2 2.9,2.8 4,2.8 1.4,0 1.6,0.2 1.6,2.1 0,1.9 -0.1,2.1 -1.8,2.1 l -1.8,0 0,17.6 0,17.6 9.1,15.2 c 5,8.4 9.6,16.1 10.2,17.2 l 1.2,2 -124.8,0 -124.8,0 z M 73.6,127 c 0.2,-0.2 -1,-4.2 -2.5,-9.1 -3.5,-11 -3,-10.7 -15.5,-9.6 -6.7,0.6 -6.4,0.2 -3.2,5.7 3,5.1 9.1,11 13,12.5 3,1.2 7.3,1.4 8.2,0.5 z M 53.6,123.4 C 51.7,121.3 49.2,118 48,115.9 c -4.5,-8 -3.9,-7.3 -7.2,-7.3 -7,0 -17.8,-3.3 -22.9,-6.9 l -3,-2.1 1.1,1.9 c 1.7,3 9.7,11.2 14,14.5 5.1,3.9 14.7,8.5 20.7,10 2.6,0.6 5.2,1.2 5.6,1.2 0.5,0 -0.8,-1.7 -2.7,-3.7 z m 43.9,-5.1 c 3,-1.9 5.9,-4.1 6.5,-4.8 l 1.1,-1.3 -2.9,0.4 c -4.9,0.7 -5.4,1 -8.2,5.2 -1.5,2.2 -2.5,4.1 -2.3,4.1 0.2,0 2.8,-1.6 5.8,-3.5 z m -8.1,-2 1.9,-2.5 -1.7,-0.4 c -0.9,-0.2 -2.3,-0.4 -3.1,-0.4 -1.2,-0.1 -1.4,0.1 -1,1.4 0.6,2.2 1.5,4.5 1.8,4.5 0.2,0 1.1,-1.1 2.2,-2.5 z m 6.3,-12.7 c 1,-2.6 2.1,-5.5 2.3,-6.5 l 0.4,-1.7 -3.5,1.7 c -1.9,1 -5.7,2.6 -8.4,3.7 l -4.9,1.9 0.6,1.9 c 0.4,1 0.9,2.2 1.2,2.6 0.6,0.8 4,1.2 8,1.1 l 2.4,-0.1 1.9,-4.8 z m 12.9,2.3 c 4.2,-1.9 7.3,-5.1 9.4,-9.7 1.3,-2.9 1.5,-3.9 1.2,-7.4 -0.5,-5.8 -0.9,-6.3 -3.5,-4.5 -1.1,0.8 -4.2,2.9 -6.7,4.7 -3.2,2.2 -4.8,3.7 -5,4.7 -0.3,1.4 -3.6,11.8 -4.3,13.7 -0.5,1.3 4.5,0.5 8.9,-1.5 z M 42,103.4 C 42,103.2 41.4,101.2 40.7,99 39.5,95.2 39.3,95 34.4,91.5 31.1,89.2 27.2,87.2 23.3,85.7 20,84.5 16.4,82.9 15.3,82.2 L 13.2,80.9 l 0,3 c 0,9.6 7.3,16.4 20.4,19 4.3,0.9 8.4,1.1 8.4,0.5 z m 12.6,0.2 c -0.1,-0.1 -2.2,-1.2 -4.6,-2.4 l -4.4,-2.2 0.9,2.2 c 0.5,1.2 0.9,2.3 0.9,2.4 0,0.1 1.7,0.2 3.7,0.2 2,0 3.6,-0.1 3.5,-0.2 z m 11.1,-2.8 C 65.5,100.1 64.6,98 63.8,96.3 62.2,92.7 62.6,92.9 52.8,92.1 50.3,91.9 47.3,91.6 46.1,91.4 c -1.2,-0.2 -2.2,-0.1 -2.2,0.2 0,0.7 9.9,6.3 15.3,8.6 5.2,2.2 7.2,2.4 6.6,0.6 z m 26.3,-7.9 c 2.9,-1.4 5.2,-2.6 5.1,-2.7 -0.1,-0.1 -2.4,0.2 -5,0.7 -2.6,0.5 -6.7,1 -9.1,1.3 -4.7,0.5 -4.6,0.2 -3,4.3 l 0.5,1.3 3.2,-1.2 C 85.3,95.9 89.1,94.2 92,92.9 Z M 59.4,86.7 c 0,-0.2 -1.2,-3 -2.7,-6.4 -1.5,-3.4 -2.6,-6.2 -2.5,-6.3 0.4,-0.4 19.3,-5.4 19.5,-5.2 0.1,0.1 0.6,3.3 1,7.2 0.4,3.9 1.1,8 1.5,9.1 l 0.7,2.1 4.3,-0.4 c 4.5,-0.4 19.1,-2.7 19.5,-3.1 0.5,-0.5 1.2,-9.7 1.3,-16.9 L 102,59 99.5,56.6 C 96.1,53.5 90.7,49.5 85.3,45.8 L 80.8,42.9 67,42.9 53.1,42.9 48.2,45.5 c -2.7,1.4 -5.3,3.1 -5.7,3.9 -1.7,3.1 -1.2,34.2 0.5,35.9 C 43.9,86.1 59.4,87.5 59.4,86.7 Z m -51.7,-9.8 c -0.7,-0.7 -1.4,-1.2 -1.5,-1.1 -0.1,0.1 0.2,2.2 0.8,4.6 l 1,4.4 0.4,-3.3 c 0.4,-2.9 0.3,-3.5 -0.8,-4.6 z M 37,81.2 C 36.2,75.8 35.9,62.1 36.4,57.2 l 0.5,-4.9 -1.7,1 C 30.1,56.3 18.6,67.8 18.6,69.9 c 0,0.5 2.7,3.6 6,6.9 5.8,5.8 7.7,7.1 11.3,7.2 1.4,0.1 1.4,-0.1 1,-2.8 z m 87,-1.2 c -0.7,-0.7 -1.3,0.7 -1,2.1 l 0.3,1.7 0.5,-1.8 c 0.3,-1 0.4,-1.9 0.2,-2 z m -8.8,-1.6 c 0.9,-0.9 0.8,-1.2 -0.5,-3.7 -0.8,-1.5 -2.7,-4.3 -4.3,-6.3 l -2.8,-3.6 -0.3,3.8 c -0.2,2.1 -0.5,6 -0.7,8.7 l -0.3,4.9 4,-1.5 c 2.2,-0.8 4.4,-1.9 4.9,-2.4 z M 17.6,76.5 C 16.1,74.6 15,74.3 15,75.6 c 0,0.5 3.4,2.9 4.1,3 0.1,0 -0.6,-0.9 -1.5,-2.1 z M 123.3,69.6 c 1.8,-2.5 2.1,-3.3 2.1,-6.4 0,-1.9 -0.2,-4.1 -0.4,-4.8 -0.7,-2.5 -8.2,-7 -16.3,-9.8 l -3.2,-1.1 0.3,1.6 c 0.2,0.9 0.5,3 0.7,4.6 0.3,2.4 0.9,3.7 3.2,6.3 4.1,4.8 6.3,7.7 8.2,11 1.9,3.3 2,3.2 5.4,-1.4 z M 11.9,71.2 c 0.4,-0.8 0.4,-1.7 0.1,-2 -0.3,-0.3 -1.5,-2.1 -2.6,-4 -2,-3.4 -2.1,-3.5 -2.5,-1.9 -0.5,2 0.5,5.6 2.2,7.7 1.5,1.9 2,2 2.8,0.2 z M 29.9,51.1 c 2.5,-1.9 5.2,-3.9 6.1,-4.5 L 37.5,45.6 35.4,46 c -6.9,1.2 -18.8,6.1 -23.4,9.7 -1.6,1.3 -1.5,1.8 1.5,7.1 l 1.5,2.6 5.2,-5.4 c 2.8,-3 7.2,-7 9.7,-8.9 z m 99.7,-1.6 c -0.4,-1.6 -1.2,-3.8 -1.9,-4.8 -0.7,-1 -1.1,-1.3 -0.8,-0.6 0.2,0.7 1,3.5 1.7,6.3 1.4,5.4 2.3,4.7 1,-0.9 z M 17.2,46.9 c 5,-2.5 14.7,-5.8 18.8,-6.5 1.3,-0.2 2.6,-0.7 2.9,-1.1 0.7,-0.9 3.2,-10 2.9,-10.4 -0.2,-0.2 -3.5,-0.3 -7.4,-0.3 -7.7,0 -11.3,0.6 -16.2,2.9 -3.5,1.6 -5,3.7 -8,11.1 -1.7,4.2 -2.1,6.1 -1.4,7.9 0.3,0.8 0.6,0.8 2,-0.2 0.9,-0.6 3.8,-2.2 6.4,-3.5 z m 83.6,2.2 c -0.2,-1.4 -0.8,-2.7 -1.3,-3 -1,-0.6 -5.3,-1.4 -5.7,-1 -0.2,0.2 6.3,5.9 7.3,6.4 0,0 -0.1,-1.1 -0.4,-2.4 z m 22,-1.1 c -0.2,-1 -1.3,-3.9 -2.5,-6.6 -1.9,-4.1 -2.5,-4.9 -4.4,-5.6 -3.4,-1.4 -13.3,-3.1 -13.3,-2.3 0,0.2 0.4,2.2 1,4.4 l 1,3.9 4.8,1.6 c 2.7,0.9 6.7,2.7 9,3.9 2.3,1.3 4.3,2.3 4.4,2.4 0.1,0 0.1,-0.7 -0.1,-1.7 z M 99,39.7 c 0,-0.3 -0.4,-1.9 -0.9,-3.7 l -0.9,-3.2 -5.3,0.4 C 85.4,33.7 78,34.8 78,35.4 c 0,0.8 3.6,2.4 5.5,2.5 1.1,0 4.6,0.5 7.7,1.1 6.9,1.3 7.8,1.4 7.8,0.7 z M 57.5,36 c 2.1,-0.8 3.8,-1.6 3.8,-1.8 0,-0.4 -9.3,-3.3 -12.3,-3.9 -1.9,-0.4 -2.1,-0.1 -4.2,7.6 -0.2,0.8 0.2,0.9 4.4,0.3 C 51.6,37.7 55.4,36.8 57.5,36 Z m 16.4,-5.1 c 4.5,-1.2 15,-2.7 18.7,-2.7 l 2.8,0 -1.3,-3.1 c -0.8,-1.8 -1.8,-3.3 -2.6,-3.5 -4,-2.5 -3.6,-7 -6.1,-9.6 C 81.9,8.3 77.7,6.2 72.4,5.7 68.7,5.3 68.1,5.4 64.5,7.1 59.8,9.5 54.5,15.1 51.3,21 l -2.2,4.2 2.6,0.7 c 5.8,1.5 10.6,3 14,4.4 4.3,1.8 3.8,1.8 8.1,0.6 z M 113.4,29.6 c 0,-1 -6.8,-8 -10.7,-11.1 -4.9,-3.9 -7.6,-5.6 -6.2,-3.9 0.4,0.5 0.7,1.9 0.6,2.9 -0.1,1.1 0.6,3.8 1.6,6.3 1.7,4.2 1.8,4.3 3.9,4.4 1.2,0 3.9,0.4 6,0.8 2.1,0.4 4.1,0.8 4.4,0.8 0.2,0 0.5,-0.1 0.5,-0.3 z M 28.7,24 C 31.6,23.7 36.1,23.7 39,23.9 c 2.8,0.3 5.1,0.5 5.1,0.4 0,0 1.2,-2.2 2.6,-4.8 2.5,-4.8 7.7,-11.8 9.6,-13 1.8,-1.2 -4,0 -10,2 -6.4,2.1 -13.3,6 -19.4,11 -4.3,3.5 -6.5,6.2 -4.4,5.4 0.6,-0.2 3.4,-0.6 6.2,-1 z M 93.6,12.4 c 0,-0.1 -0.4,-0.4 -0.9,-0.6 -0.5,-0.2 -0.9,-0.1 -0.9,0.2 0,0.3 0.4,0.6 0.9,0.6 0.5,0 0.9,-0.1 0.9,-0.2 z"/>
</svg>
