<svg xmlns="http://www.w3.org/2000/svg" viewBox="0 0 584 584"><path fill="#e8e6e1" fill-rule="evenodd" d="M0,472L0,360L4,360L8,360L8,372L8,384L12,384L16,384L16,396L16,408L20,408C24,408 24,408 24,416C24,424 24,424 28,424C32,424 32,424 32,432C32,440 32,440 36,440C40,440 40,440 40,444C40,448 40,448 44,448C48,448 48,448 48,456C48,464 48,464 52,464C56,464 56,464 56,468C56,472 56,472 60,472C64,472 64,472 64,476C64,480 64,480 68,480C72,480 72,480 72,484C72,488 72,488 76,488C80,488 80,488 80,492C80,496 80,496 84,496C88,496 88,496 88,500C88,504 88,504 92,504C96,504 96,504 96,508C96,512 96,512 100,512C104,512 104,512 104,516C104,520 104,520 108,520C112,520 112,520 112,524C112,528 112,528 116,528C120,528 120,528 120,532C120,536 120,536 128,536C136,536 136,536 136,540C136,544 136,544 144,544C152,544 152,544 152,548C152,552 152,552 160,552C168,552 168,552 168,556C168,560 168,560 176,560C184,560 184,560 184,564L184,568L196,568L208,568L208,572L208,576L228,576L248,576L248,580L248,584L124,584L0,584L0,472zM328,580L328,576L348,576L368,576L368,572L368,568L380,568L392,568L392,564C392,560 392,560 400,560C408,560 408,560 408,556C408,552 408,552 416,552C424,552 424,552 424,548C424,544 424,544 432,544C440,544 440,544 440,540C440,536 440,536 448,536C456,536 456,536 456,532C456,528 456,528 460,528C464,528 464,528 464,524C464,520 464,520 468,520C472,520 472,520 472,516C472,512 472,512 476,512C480,512 480,512 480,508C480,504 480,504 484,504C488,504 488,504 488,500C488,496 488,496 492,496C496,496 496,496 496,492C496,488 496,488 500,488C504,488 504,488 504,484C504,480 504,480 508,480C512,480 512,480 512,476C512,472 512,472 516,472C520,472 520,472 520,468C520,464 520,464 524,464C528,464 528,464 528,456C528,448 528,448 532,448C536,448 536,448 536,444C536,440 536,440 540,440C544,440 544,440 544,432C544,424 544,424 548,424C552,424 552,424 552,416C552,408 552,408 556,408L560,408L560,396L560,384L564,384L568,384L568,372L568,360L572,360L576,360L576,328L576,296L580,296L584,296L584,440L584,584L456,584L328,584L328,580zM240,524L240,520L224,520L208,520L208,516C208,512 208,512 200,512C192,512 192,512 192,508C192,504 192,504 184,504C176,504 176,504 176,500C176,496 176,496 168,496C160,496 160,496 160,492C160,488 160,488 156,488C152,488 152,488 152,484C152,480 152,480 144,480C136,480 136,480 136,476C136,472 136,472 132,472C128,472 128,472 128,468C128,464 128,464 124,464C120,464 120,464 120,460C120,456 120,456 116,456C112,456 112,456 112,452C112,448 112,448 108,448C104,448 104,448 104,444C104,440 104,440 100,440C96,440 96,440 96,432C96,424 96,424 92,424C88,424 88,424 88,420C88,416 88,416 84,416C80,416 80,416 80,408C80,400 80,400 76,400C72,400 72,400 72,392C72,384 72,384 68,384L64,384L64,372L64,360L60,360L56,360L56,340L56,320L52,320L48,320L48,292L48,264L52,264L56,264L56,244L56,224L60,224L64,224L64,212L64,200L68,200C72,200 72,200 72,192C72,184 72,184 76,184C80,184 80,184 80,176C80,168 80,168 84,168C88,168 88,168 88,164C88,160 88,160 92,160C96,160 96,160 96,152C96,144 96,144 100,144C104,144 104,144 104,140C104,136 104,136 108,136C112,136 112,136 112,132C112,128 112,128 116,128C120,128 120,128 120,124C120,120 120,120 124,120C128,120 128,120 128,116C128,112 128,112 132,112C136,112 136,112 136,108C136,104 136,104 140,104C144,104 144,104 144,100C144,96 144,96 152,96C160,96 160,96 160,92C160,88 160,88 164,88C168,88 168,88 168,84C168,80 168,80 176,80C184,80 184,80 184,76C184,72 184,72 192,72C200,72 200,72 200,68L200,64L216,64L232,64L232,60L232,56L288,56L344,56L344,60L344,64L360,64L376,64L376,68C376,72 376,72 384,72C392,72 392,72 392,76C392,80 392,80 400,80C408,80 408,80 408,84C408,88 408,88 412,88C416,88 416,88 416,92C416,96 416,96 424,96C432,96 432,96 432,100C432,104 432,104 436,104C440,104 440,104 440,108C440,112 440,112 444,112C448,112 448,112 448,116C448,120 448,120 452,120C456,120 456,120 456,124C456,128 456,128 460,128C464,128 464,128 464,132C464,136 464,136 468,136C472,136 472,136 472,140C472,144 472,144 476,144C480,144 480,144 480,148C480,152 480,152 484,152C488,152 488,152 488,160C488,168 488,168 492,168C496,168 496,168 496,176C496,184 496,184 500,184C504,184 504,184 504,192C504,200 504,200 508,200L512,200L512,212L512,224L516,224L520,224L520,244L520,264L524,264L528,264L528,292L528,320L524,320L520,320L520,340L520,360L516,360L512,360L512,372L512,384L508,384C504,384 504,384 504,392C504,400 504,400 500,400C496,400 496,400 496,408C496,416 496,416 492,416C488,416 488,416 488,420C488,424 488,424 484,424C480,424 480,424 480,432C480,440 480,440 476,440C472,440 472,440 472,444C472,448 472,448 468,448C464,448 464,448 464,452C464,456 464,456 460,456C456,456 456,456 456,460C456,464 456,464 452,464C448,464 448,464 448,468C448,472 448,472 444,472C440,472 440,472 440,476C440,480 440,480 432,480C424,480 424,480 424,484C424,488 424,488 420,488C416,488 416,488 416,492C416,496 416,496 408,496C400,496 400,496 400,500C400,504 400,504 392,504C384,504 384,504 384,508C384,512 384,512 376,512C368,512 368,512 368,516L368,520L352,520L336,520L336,524L336,528L288,528L240,528L240,524zM304,480L304,456L300,456C296,456 296,456 296,460C296,464 296,464 292,464C288,464 288,464 288,468C288,472 288,472 284,472L280,472L280,488L280,504L292,504L304,504L304,480zM240,484C240,480 240,480 248,480C256,480 256,480 256,476C256,472 256,472 260,472C264,472 264,472 264,468C264,464 264,464 272,464C280,464 280,464 280,460C280,456 280,456 284,456C288,456 288,456 288,452C288,448 288,448 296,448C304,448 304,448 304,444C304,440 304,440 312,440C320,440 320,440 320,436C320,432 320,432 328,432C336,432 336,432 336,428C336,424 336,424 340,424C344,424 344,424 344,420C344,416 344,416 352,416C360,416 360,416 360,412C360,408 360,408 364,408C368,408 368,408 368,404C368,400 368,400 372,400L376,400L376,368L376,336L372,336C368,336 368,336 368,332C368,328 368,328 364,328C360,328 360,328 360,324L360,320L348,320L336,320L336,336L336,352L340,352C344,352 344,352 344,356C344,360 344,360 348,360C352,360 352,360 352,364C352,368 352,368 356,368C360,368 360,368 360,372C360,376 360,376 352,376C344,376 344,376 344,380C344,384 344,384 336,384C328,384 328,384 328,388C328,392 328,392 320,392C312,392 312,392 312,396C312,400 312,400 308,400C304,400 304,400 304,404C304,408 304,408 296,408C288,408 288,408 288,412C288,416 288,416 280,416C272,416 272,416 272,420C272,424 272,424 268,424C264,424 264,424 264,428C264,432 264,432 256,432C248,432 248,432 248,436C248,440 248,440 240,440C232,440 232,440 232,444C232,448 232,448 228,448L224,448L224,468L224,488L232,488C240,488 240,488 240,484zM280,404C280,400 280,400 288,400C296,400 296,400 296,396C296,392 296,392 300,392C304,392 304,392 304,388C304,384 304,384 308,384C312,384 312,384 312,380C312,376 312,376 316,376L320,376L320,356L320,336L324,336L328,336L328,320L328,304L332,304L336,304L336,288L336,272L340,272L344,272L344,256L344,240L348,240L352,240L352,220L352,200L356,200C360,200 360,200 360,192L360,184L352,184C344,184 344,184 344,188C344,192 344,192 336,192C328,192 328,192 328,196C328,200 328,200 320,200C312,200 312,200 312,204C312,208 312,208 304,208C296,208 296,208 296,212C296,216 296,216 292,216C288,216 288,216 288,220C288,224 288,224 280,224C272,224 272,224 272,228C272,232 272,232 264,232C256,232 256,232 256,236C256,240 256,240 252,240C248,240 248,240 248,244C248,248 248,248 244,248L240,248L240,264L240,280L244,280L248,280L248,292L248,304L252,304L256,304L256,320L256,336L260,336L264,336L264,364L264,392L268,392C272,392 272,392 272,400C272,408 272,408 276,408C280,408 280,408 280,404zM240,296C240,288 240,288 236,288L232,288L232,276L232,264L228,264C224,264 224,264 224,260C224,256 224,256 220,256C216,256 216,256 216,252C216,248 216,248 220,248C224,248 224,248 224,244C224,240 224,240 232,240C240,240 240,240 240,236C240,232 240,232 244,232C248,232 248,232 248,228C248,224 248,224 256,224C264,224 264,224 264,220C264,216 264,216 272,216C280,216 280,216 280,212C280,208 280,208 284,208C288,208 288,208 288,204C288,200 288,200 296,200C304,200 304,200 304,196C304,192 304,192 312,192C320,192 320,192 320,188C320,184 320,184 328,184C336,184 336,184 336,180C336,176 336,176 344,176C352,176 352,176 352,172C352,168 352,168 356,168C360,168 360,168 360,164C360,160 360,160 364,160C368,160 368,160 368,156C368,152 368,152 372,152L376,152L376,132L376,112L368,112C360,112 360,112 360,116C360,120 360,120 356,120C352,120 352,120 352,124C352,128 352,128 344,128C336,128 336,128 336,132C336,136 336,136 332,136C328,136 328,136 328,140C328,144 328,144 320,144C312,144 312,144 312,148C312,152 312,152 304,152C296,152 296,152 296,156C296,160 296,160 288,160C280,160 280,160 280,164C280,168 280,168 272,168C264,168 264,168 264,164C264,160 264,160 268,160C272,160 272,160 272,156C272,152 272,152 280,152C288,152 288,152 288,148C288,144 288,144 296,144C304,144 304,144 304,140L304,136L276,136L248,136L248,140C248,144 248,144 240,144L232,144L232,152C232,160 232,160 228,160L224,160L224,172L224,184L228,184C232,184 232,184 232,180C232,176 232,176 240,176C248,176 248,176 248,172C248,168 248,168 256,168C264,168 264,168 264,172C264,176 264,176 260,176C256,176 256,176 256,180C256,184 256,184 248,184C240,184 240,184 240,188C240,192 240,192 232,192C224,192 224,192 224,196C224,200 224,200 216,200C208,200 208,200 208,204C208,208 208,208 204,208C200,208 200,208 200,212C200,216 200,216 196,216L192,216L192,252L192,288L196,288C200,288 200,288 200,292C200,296 200,296 208,296C216,296 216,296 216,300L216,304L228,304L240,304L240,296zM576,256L576,224L572,224L568,224L568,208L568,192L564,192C560,192 560,192 560,184C560,176 560,176 556,176C552,176 552,176 552,168C552,160 552,160 548,160C544,160 544,160 544,152C544,144 544,144 540,144C536,144 536,144 536,136C536,128 536,128 532,128C528,128 528,128 528,124C528,120 528,120 524,120C520,120 520,120 520,116C520,112 520,112 516,112C512,112 512,112 512,104C512,96 512,96 508,96C504,96 504,96 504,92C504,88 504,88 500,88C496,88 496,88 496,84C496,80 496,80 492,80C488,80 488,80 488,76C488,72 488,72 484,72C480,72 480,72 480,68C480,64 480,64 472,64C464,64 464,64 464,60C464,56 464,56 460,56C456,56 456,56 456,52C456,48 456,48 452,48C448,48 448,48 448,44C448,40 448,40 440,40C432,40 432,40 432,36C432,32 432,32 424,32C416,32 416,32 416,28C416,24 416,24 408,24C400,24 400,24 400,20L400,16L388,16L376,16L376,12L376,8L360,8L344,8L344,4L344,0L464,0L584,0L584,144L584,288L580,288L576,288L576,256zM0,112L0,0L116,0L232,0L232,4L232,8L216,8L200,8L200,12L200,16L188,16L176,16L176,20C176,24 176,24 168,24C160,24 160,24 160,28C160,32 160,32 152,32C144,32 144,32 144,36C144,40 144,40 140,40C136,40 136,40 136,44C136,48 136,48 128,48C120,48 120,48 120,52C120,56 120,56 116,56C112,56 112,56 112,60C112,64 112,64 104,64C96,64 96,64 96,68C96,72 96,72 92,72C88,72 88,72 88,76C88,80 88,80 84,80C80,80 80,80 80,84C80,88 80,88 76,88C72,88 72,88 72,92C72,96 72,96 68,96C64,96 64,96 64,104C64,112 64,112 60,112C56,112 56,112 56,116C56,120 56,120 52,120C48,120 48,120 48,124C48,128 48,128 44,128C40,128 40,128 40,136C40,144 40,144 36,144C32,144 32,144 32,152C32,160 32,160 28,160C24,160 24,160 24,168C24,176 24,176 20,176C16,176 16,176 16,184C16,192 16,192 12,192L8,192L8,208L8,224L4,224L0,224L0,112zM304,116C304,112 304,112 308,112C312,112 312,112 312,108C312,104 312,104 316,104C320,104 320,104 320,96C320,88 320,88 316,88C312,88 312,88 312,80L312,72L292,72L272,72L272,76C272,80 272,80 268,80L264,80L264,96L264,112L268,112C272,112 272,112 272,116L272,120L288,120L304,120L304,116z"/></svg>